<svg width="42" height="57" viewBox="0 0 42 57" fill="none" xmlns="http://www.w3.org/2000/svg">
<path d="M21 56.4999C22.5648 56.4999 23.8333 55.2314 23.8333 53.6666C23.8333 52.1018 22.5648 50.8333 21 50.8333C19.4352 50.8333 18.1667 52.1018 18.1667 53.6666C18.1667 55.2314 19.4352 56.4999 21 56.4999Z" fill="#029F59" stroke="white"/>
<path fill-rule="evenodd" clip-rule="evenodd" d="M23.5622 42.7637C24.1686 42.0816 24.994 41.641 25.8818 41.4296C35.1255 39.2289 42 30.9173 42 21C42 9.40202 32.598 0 21 0C9.40202 0 0 9.40202 0 21C0 30.9173 6.87452 39.2289 16.1182 41.4296C17.006 41.641 17.8314 42.0816 18.4378 42.7637L19.2877 43.7196C19.6477 44.1245 19.9217 44.5984 20.093 45.1124L21 47.8333L21.907 45.1124C22.0783 44.5984 22.3523 44.1245 22.7123 43.7196L23.5622 42.7637Z" fill="#029F59"/>
<circle cx="21" cy="22" r="5" fill="#FFF9F9"/>
</svg>
